<?xml version="1.0" standalone="no"?>
<!DOCTYPE svg PUBLIC "-//W3C//DTD SVG 1.1//EN" "http://www.w3.org/Graphics/SVG/1.1/DTD/svg11.dtd" >
<svg xmlns="http://www.w3.org/2000/svg">
<metadata>
This is a custom SVG webfont generated by Font Squirrel.
Copyright   : Copyright c 2000  mithicom Pune India
</metadata>
<defs>
<font id="MARmith0Regular" horiz-adv-x="12" >
<font-face units-per-em="2048" ascent="1638" descent="-410" />
<missing-glyph horiz-adv-x="648" />
<glyph unicode=" "  horiz-adv-x="648" />
<glyph unicode="&#x09;" horiz-adv-x="648" />
<glyph unicode="&#xa0;" horiz-adv-x="648" />
<glyph unicode="!" horiz-adv-x="466" d="M290 -2v124h140v-124h-140zM322 333v918h77v-918h-77z" />
<glyph unicode="&#x22;" horiz-adv-x="636" d="M146 864v397h101v-397h-101zM395 864v397h102v-397h-102z" />
<glyph unicode="#" horiz-adv-x="942" d="M59 375v75h190l35 256h-179v73h189l53 365h81l-51 -365h231l51 365h83l-53 -365h173v-73h-183l-34 -256h172v-75h-182l-51 -365h-83l53 365h-232l-52 -365h-81l50 365h-180zM333 450h231l34 256h-231z" />
<glyph unicode="$" horiz-adv-x="902" d="M81 408h97q0 -255 248 -286v446q-154 34 -221 85q-95 73 -96 217q0 136 90.5 215t226.5 79v120h59v-120q144 0 231 -91.5t87 -235.5h-93q0 109 -59 178.5t-166 69.5v-436q164 -32 239 -87q109 -75 109 -217q0 -140 -105 -225q-99 -77 -243 -77v-128h-59v130 q-345 35 -345 363zM205 860q0 -95 67 -140q43 -28 154 -55v420q-105 0 -163 -59t-58 -166zM485 122q109 0 181 57.5t72 163.5q0 95 -81 150q-53 36 -172 65v-436z" />
<glyph unicode="%" horiz-adv-x="1427" d="M164 831q0 286 240 286q241 0 241 -286t-241 -286q-240 0 -240 286zM245 831q0 -217 159 -217q160 0 160 217t-160 217q-159 0 -159 -217zM347 2l683 1144h91l-679 -1144h-95zM825 314q0 284 242 284q239 0 239 -284t-239 -284q-242 0 -242 284zM906 312q0 -215 161 -215 q158 0 158 215q0 219 -158 219q-161 0 -161 -219z" />
<glyph unicode="&#x26;" horiz-adv-x="993" d="M103 296q0 156 264 302q-18 24 -87 134q-45 73 -45 142q0 97 69 158t168 61q105 0 172.5 -59t67.5 -160q0 -91 -65 -164q-41 -45 -146 -132l233 -266q32 61 32 181h98q0 -134 -65 -258l180 -219h-117l-116 140q-130 -162 -316 -162q-144 0 -235.5 79t-91.5 223zM199 286 q0 -97 71 -156q65 -57 164 -57q144 0 253 154l-269 308q-219 -119 -219 -249zM331 874q0 -51 40 -116q20 -36 79 -119q166 103 166 235q0 63 -39.5 101.5t-104.5 38.5q-63 0 -102 -38.5t-39 -101.5z" />
<glyph unicode="'" horiz-adv-x="480" d="M251 805l2 331h92v-331h-94z" />
<glyph unicode="(" horiz-adv-x="604" d="M116 483q0 286 160 580q85 152 184 267h110q-128 -146 -187 -257q-154 -286 -154 -590q0 -290 154 -580q51 -99 189 -270h-112q-101 126 -184 282q-160 302 -160 568z" />
<glyph unicode=")" horiz-adv-x="628" d="M61 -367q69 87 101 130q55 75 89 140q154 288 155 580q0 308 -155 590q-55 103 -188 257h113q97 -112 183 -267q160 -294 160 -580q0 -264 -160 -568q-85 -158 -183 -282h-115z" />
<glyph unicode="*" horiz-adv-x="608" d="M43 1065l24 68l186 -66v198h73v-198l187 66l26 -68l-190 -63l115 -160l-56 -43l-122 162l-118 -162l-59 43l120 160z" />
<glyph unicode="+" horiz-adv-x="1013" d="M77 456v96h369v367h97v-367h367v-96h-367v-369h-97v369h-369z" />
<glyph unicode="," horiz-adv-x="466" d="M197 -178l136 283l125 -6l-180 -277h-81z" />
<glyph unicode="-" horiz-adv-x="922" d="M193 440v79h596v-79h-596z" />
<glyph unicode="." horiz-adv-x="466" d="M286 -2v136h144v-136h-144z" />
<glyph unicode="/" horiz-adv-x="821" d="M73 -195l493 1284l85 -18l-493 -1280z" />
<glyph unicode="0" horiz-adv-x="884" d="M132 479q0 142 90 231t232 89q136 0 230.5 -92.5t94.5 -227.5q0 -134 -94.5 -226.5t-230.5 -92.5t-229 92.5t-93 226.5zM225 479q0 -101 65 -177.5t164 -76.5t164 78t65 180q0 103 -63.5 177t-165.5 74q-101 0 -165 -76t-64 -179z" />
<glyph unicode="1" horiz-adv-x="884" d="M180 404q0 32 37 36q130 14 235 85q122 83 122 199q0 71 -60 120.5t-131 49.5q-126 0 -125 -119q0 -28 30 -61t61 -47l-23 -71q-57 20 -101.5 72t-44.5 101q0 91 61 148.5t154 57.5q91 0 181 -67q97 -71 91 -176q-8 -134 -124 -233q-99 -83 -243 -120q105 -61 239 -215 q61 -71 146 -192q14 -32 15 -63q0 -67 -75 -83q-65 -12 -116 14l18 61q51 -16 79 -10q10 2 10 14q0 51 -137 209q-97 114 -177 176q-18 14 -70 53t-52 61z" />
<glyph unicode="2" horiz-adv-x="884" d="M101 898q148 91 290 92q154 0 262 -84q120 -89 120 -239q0 -118 -49 -188q-93 -134 -258 -163l300 -417l-89 -53l-306 444q-6 -2 -63 -2q-152 0 -152 105q0 77 93 77q91 0 159 -89q79 0 160 59q99 71 99 227q0 126 -95 187q-67 45 -181 44q-65 0 -126.5 -28t-122.5 -57 q-15 28 -41 85z" />
<glyph unicode="3" horiz-adv-x="884" d="M109 910q191 81 284 82q109 0 191 -57q89 -61 89 -173q0 -168 -152 -190q225 -71 225 -246q0 -142 -128 -223q-79 -51 -154 -56l154 -205l-75 -59l-186 260q-24 -4 -93 20q-95 34 -96 101q-2 87 94 87q59 0 115 -66q41 -47 45 -71q49 2 111 36q107 55 108 170 q0 197 -276 197q-49 0 -97 -6l-53 87h152q79 0 140 41q71 45 71 119q0 75 -61 118q-55 36 -132 36q-97 0 -223 -77z" />
<glyph unicode="4" horiz-adv-x="884" d="M81 801q0 93 106 176l71 -38q-71 -83 -71 -146q0 -91 123 -183q103 -75 130 -75q24 0 128 77q124 95 123 185q0 57 -62 148l81 34q85 -93 85 -182q0 -105 -144 -217q-99 -79 -138 -87q199 -122 199 -272q0 -116 -81 -176q-71 -55 -189 -55q-114 0 -189 62t-75 173 q0 93 90 185q65 65 93 73v4q-34 8 -140 93q-140 116 -140 221zM270 229q0 -77 47.5 -124.5t122.5 -47.5q77 0 125.5 48.5t48.5 123.5q0 81 -85 152q-69 59 -93 59q-18 0 -83 -61q-83 -75 -83 -150z" />
<glyph unicode="5" horiz-adv-x="884" d="M93 689q0 114 96 290l83 -44q-73 -168 -73 -250q0 -107 50 -176q55 -79 159 -79q85 0 148 49q-20 81 -19 135q4 172 104 173q101 0 101 -134q0 -109 -93 -207q12 -26 69 -170q63 -164 63 -274q0 -128 -148 -199l-77 67q120 39 119 132q0 136 -103 389q-116 -36 -168 -36 q-146 0 -228.5 93t-82.5 241z" />
<glyph unicode="6" horiz-adv-x="884" d="M109 769q0 99 85.5 159t174.5 60q91 0 213 -21l28 -103q-118 47 -221 46q-69 0 -124.5 -42.5t-55.5 -109.5q0 -77 73 -127q59 -39 150 -39h154l30 -83q-91 4 -164 4q-99 0 -156 -62t-57 -161q0 -83 58 -142t149 -59q28 0 82 15.5t64 15.5q-18 43 -16 97q2 109 77 109 q89 0 89 -109q0 -36 -18 -82t-47 -64l96 -211l-100 -45l-61 221q-2 0 -4 -2q-83 -16 -162 -16q-122 0 -215 79t-93 199q0 180 184 241q-55 12 -111 51q-102 69 -102 181z" />
<glyph unicode="7" horiz-adv-x="884" d="M39 933l99 16q6 -105 28 -357q65 -533 306 -533q91 0 154 75t65 168q-138 2 -224 86t-86 220q0 99 55 175q61 83 156 83q116 0 174 -108q49 -87 49 -213q0 -247 -53 -371q-79 -189 -290 -188q-174 0 -267 150q-91 142 -132 428q-8 95 -34 369zM472 608q0 -99 69 -168 t169 -71q4 16 4 41q2 18 0 60q-2 47 -2 77q0 241 -124 242q-61 0 -91 -63q-25 -49 -25 -118z" />
<glyph unicode="8" horiz-adv-x="884" d="M126 270q0 101 99 202l495 495l75 -59l-495 -494q-75 -75 -75 -142q0 -34 37 -73q12 -14 22 -25q107 -107 195 -107q93 0 275 154l59 -79q-215 -156 -334 -156q-178 0 -327 201q-26 34 -26 83z" />
<glyph unicode="9" horiz-adv-x="884" d="M126 702q0 116 79 193.5t194 77.5q116 0 200 -76t84 -191q0 -118 -97 -187q-83 -59 -209 -63l351 -424q43 -53 43 -99q0 -97 -120 -144l-83 61q103 16 103 87q0 24 -38 69l-422 507q-85 104 -85 189zM229 710q0 -79 45 -134q49 -61 125 -61q81 0 130 58t49 141 q0 75 -52 128.5t-127 53.5q-77 0 -123.5 -54.5t-46.5 -131.5z" />
<glyph unicode=":" horiz-adv-x="466" d="M264 91v130h146v-130h-146zM264 582v130h146v-130h-146z" />
<glyph unicode=";" horiz-adv-x="466" d="M185 -221l139 322h104l-164 -322h-79zM310 499v132h130v-132h-130z" />
<glyph unicode="&#x3c;" horiz-adv-x="1013" d="M73 460v94l839 387v-99l-723 -337l723 -333v-99z" />
<glyph unicode="=" horiz-adv-x="1013" d="M77 296v97h833v-97h-833zM77 620v94h833v-94h-833z" />
<glyph unicode="&#x3e;" horiz-adv-x="1013" d="M73 73v99l726 333l-726 337v99l839 -387v-94z" />
<glyph unicode="?" horiz-adv-x="1003" d="M262 1022q166 241 365 241q128 0 212 -79q77 -73 78 -190q0 -142 -116 -228l-118 -73q-75 -49 -101 -109q-22 -51 -22 -89v-183h-96v207q0 103 92 187q28 26 170 117q95 61 95 156q0 199 -201 199q-79 0 -178 -89q-67 -61 -107 -124zM446 0v128h138v-128h-138z" />
<glyph unicode="@" horiz-adv-x="1342" d="M75 681q0 266 170.5 437.5t433.5 171.5q239 0 396 -136q164 -142 164 -377q0 -174 -103 -319q-114 -162 -280 -162q-101 0 -114 108q-103 -105 -207 -106q-103 0 -162 69t-59 174q0 182 102 323q114 154 290 154q124 0 174 -130l39 100h95l-160 -477q-18 -55 -19 -89 q0 -43 37 -43q118 0 201 148q73 130 73 256q0 197 -134 314q-128 112 -329 112q-235 0 -374 -151.5t-139 -388.5q0 -227 145 -375t370 -148q124 0 237.5 58t184.5 159h93q-77 -142 -214.5 -221t-300.5 -79q-272 0 -441 173t-169 445zM426 550q0 -154 132 -155q112 0 194 138 q73 122 73 244q0 51 -37.5 99.5t-87.5 48.5q-120 0 -201 -132q-73 -115 -73 -243z" />
<glyph unicode="A" horiz-adv-x="1212" d="M49 436l83 6q8 -71 69 -168q32 -55 94 -95.5t121 -40.5q83 0 139.5 52.5t56.5 135.5q-2 91 -62.5 140t-154.5 49h-58v69h64q67 0 111 44.5t44 111.5q0 154 -173 154q-124 0 -174 -142l-83 33q85 180 257 180q114 0 186 -57q70 -55 70 -160q0 -96 -69 -152 q-20 -16 -73 -36q79 -18 126 -61h352v393h-172v73h434v-73h-166v-896h-96v434h-308q28 -35 29 -100q0 -119 -78 -193q-79 -76 -202 -76q-176 0 -278 166q-75 124 -89 209z" />
<glyph unicode="B" horiz-adv-x="855" d="M-4 890v73h904v-73h-211v-274h-401q-85 0 -85 -89q0 -39 33.5 -66t71.5 -27l227 2h18q118 0 163 -26q73 -43 73 -142q-2 -122 -160 -189q-95 -41 -234 -40v-21l319 -178l-59 -81q-16 14 -316 225q-57 8 -154 71q-107 69 -108 121q0 59 67 59q47 0 103 -36q28 -18 108 -85 q18 -6 51 -7q101 0 178 33q105 43 105 130q0 67 -66 89q-4 2 -122 2h-193q-101 0 -160 65q-45 47 -45 101q0 61 50 107.5t151 46.5h290v209h-598z" />
<glyph unicode="C" horiz-adv-x="1003" d="M-8 892v73h1058v-73h-249q83 -85 83 -166q0 -71 -42 -126q-34 -45 -106 -69q199 -65 199 -233q0 -120 -93.5 -192t-206.5 -72q-298 0 -410 268q-47 114 -61 239l104 -2q34 -428 363 -427q87 0 153 50.5t66 143.5t-81 144q-63 41 -126 41h-122v77h126q59 0 101.5 46.5 t42.5 107.5q0 63 -33 122q-26 49 -34 48h-732z" />
<glyph unicode="D" horiz-adv-x="912" d="M-8 892v73h1365v-73h-627q93 -67 93 -170q0 -59 -46 -116q-36 -47 -102 -79q47 -14 65 -20q41 -16 65 -39q101 107 205 108q124 0 188 -61q77 -73 77 -158q0 -73 -34 -215q-16 -63 -49 -126l-93 31q79 192 79 301q0 58 -47 108q-41 45 -125 45q-71 0 -152 -97 q24 -45 24 -106q0 -118 -103.5 -191t-212.5 -73q-203 0 -347 193q-77 103 -106 314l106 -2q16 -187 93 -286q105 -138 250 -137q95 0 158 44q79 55 79 146q0 87 -79 136q-65 41 -152 41h-102l-4 85h118q154 0 154 154q0 119 -118 170h-620z" />
<glyph unicode="E" horiz-adv-x="896" d="M-4 892v73h945v-73h-213v-353q0 -79 -47 -119q-16 -16 -85 -39l-55 49q49 4 73 34q18 22 19 94v334h-373v-541q0 -136 52 -199q59 -69 197 -69h99q-4 0 59 -2h41v-81h-207q-142 0 -239.5 91t-97.5 231v570h-168z" />
<glyph unicode="F" horiz-adv-x="859" d="M-4 892v73h894v-73h-197v-310q91 122 195 122h110v-75q2 -6 -2 -7.5t-25 -1.5h-87q-75 0 -133 -71.5t-58 -149.5v-399h-95v280q-97 -81 -197 -81q-112 0 -193.5 64.5t-81.5 186.5q0 118 79 188t190 70q34 0 150 -45v-81q-103 49 -139 49q-77 0 -130 -51t-53 -126 q0 -77 47.5 -126.5t124.5 -49.5q47 0 120 30q83 36 83 77v507h-602z" />
<glyph unicode="G" horiz-adv-x="841" d="M-12 892v73h1304v-73h-609v-276q67 81 165 82q112 0 184 -59q91 -73 95 -173q0 -8 1 -15q0 -91 -45 -177q-53 -103 -154 -167q-2 -2 -6 -4l-63 77q2 2 8 5q49 26 93 79q69 85 69 184q0 77 -53 126q-47 41 -123 40q-93 0 -138 -77q-32 -55 -33 -140v-401h-93v284 q-89 -77 -193 -77q-114 0 -190 61q-89 73 -89 192q0 112 81 185t186 73q87 0 152 -45v-81q-89 49 -142 49q-75 0 -127.5 -51t-52.5 -126q0 -77 49.5 -129.5t126.5 -52.5q85 0 152 50q47 34 47 57v507h-602z" />
<glyph unicode="H" horiz-adv-x="906" d="M-4 892v73h935v-73h-428v-217q0 -160 -142 -201q-18 -5 -39 -4q-25 0 -52 7q65 -91 81 -116q49 -65 95 -108q158 -142 316 -141q180 0 361 178q1 -25 1 -48t-1 -43q-174 -166 -344 -167q-229 0 -408 175q-69 65 -152 184q-89 132 -138 244l89 40q28 -81 43 -101 q28 -47 83 -47q120 0 120 154v211h-420zM679 547q0 83 69 140q59 51 150 51q45 0 79 -6l23 -71q-61 16 -98 16q-63 0 -103.5 -34.5t-40.5 -95.5q0 -130 140 -129q93 0 225 105v-95q-138 -83 -208 -83q-103 0 -159 42q-77 61 -77 160z" />
<glyph unicode="I" horiz-adv-x="559" d="M-4 892v73h590v-73h-170v-551q0 -63 -33 -63q-49 0 -136 85t-87 134q0 22 41 22h119v373h-324z" />
<glyph unicode="J" horiz-adv-x="608" d="M-8 892v73h681v-73h-328q-136 0 -136 -123q0 -124 158 -124h95v-77h-95q-49 0 -84.5 -42.5t-35.5 -97.5q0 -79 65 -128q36 -28 124 -28q118 0 223 77q126 89 164 156l-4 -120q-193 -193 -391 -192q-114 0 -183 56q-77 65 -77 179q0 95 94 172q-45 8 -73 29 q-63 47 -63 127q0 87 61 128l16 8h-211z" />
<glyph unicode="K" horiz-adv-x="640" d="M-4 892v73h671v-73h-671zM95 635v79h592v-79h-125q-41 0 -110 -59q-83 -71 -83 -166q0 -134 130 -134q93 0 203 77q89 63 158 154v-138q-176 -174 -365 -174q-103 0 -167 52.5t-64 158.5q0 142 150 229h-319z" />
<glyph unicode="L" horiz-adv-x="1074" d="M-4 892v73h1219v-73h-333v-164q20 -6 81 -35q81 -57 81 -172q0 -195 -138 -330q-140 -142 -342 -142q-134 0 -227 58q-132 85 -132 217t107 209q-36 6 -91 45q-91 65 -91 152q0 95 107 162h-241zM229 738q0 -63 55 -104.5t126 -41.5q49 0 75 4v-73h-33q-152 0 -152 -190 q0 -89 93 -148q81 -53 181 -53q103 0 198.5 55.5t137.5 147.5q-11 -1 -22 -1q-63 0 -130 29q-120 53 -119 170q0 103 71 158q36 28 81 35v166h-458q-34 -10 -69 -64t-35 -90zM722 527q0 -136 166 -136q24 0 39 4q28 14 28 136q0 124 -122 124q-51 0 -81 -37.5t-30 -90.5z " />
<glyph unicode="M" horiz-adv-x="794" d="M-4 892v73h825v-73h-825zM112 663l103 -2q6 -109 40 -193q39 -93 108 -152q73 -65 158 -65q73 0 120 53q41 47 40 102q0 138 -150 202q0 26 -4 61h489v-73h-361q124 -67 124 -188q0 -126 -98 -189q-69 -45 -166 -45q-215 0 -343 258q-20 41 -40 115.5t-20 115.5z" />
<glyph unicode="N" horiz-adv-x="853" d="M-10 892v73h890v-73h-253v-286h-372q-79 0 -79 -81q0 -32 34.5 -56.5t67.5 -24.5q274 0 776 2v-65h-375q45 -77 45 -113q-2 -213 -357 -213v-14q79 -41 237 -126l-52 -89q-101 81 -236 176q-77 8 -156 55q-97 55 -97 119q0 30 24.5 53.5t54.5 23.5q79 0 184 -117 q22 -8 69 -8q89 0 161 28q93 41 93 116t-49 93q-18 8 -103 8h-219q-67 0 -124 43q-63 47 -63 111q0 75 61 118q53 36 130 36h247v211h-539z" />
<glyph unicode="O" horiz-adv-x="932" d="M-4 892v73h1002v-73h-240v-292h-346q-73 0 -125 -47.5t-52 -118.5q0 -132 101.5 -217t235.5 -85q136 0 284 101q24 16 69 51l52 -77q-12 -10 -52 -41q-146 -114 -353 -113q-176 0 -304 108.5t-128 278.5q0 103 73 173t176 70h272v209h-665z" />
<glyph unicode="P" horiz-adv-x="859" d="M-4 892v73h994v-73h-317v-239q215 -75 215 -302q0 -132 -115 -215q-105 -73 -242 -73q-168 0 -283.5 105.5t-115.5 271.5q0 114 81 180q77 61 193 61h166v211h-576zM231 436q0 -124 88.5 -211t211.5 -87q114 0 183 57q79 65 79 179q0 107 -64 165q-66 61 -177 61h-161 q-71 0 -115.5 -46.5t-44.5 -117.5z" />
<glyph unicode="Q" horiz-adv-x="993" d="M-4 892v73h1176v-75h-345v-270h-284q-124 0 -123 -95q0 -85 127 -85h165q221 0 221 -187q0 -123 -91 -186q-79 -55 -205 -55q-152 0 -313 116q-89 65 -241 229q67 77 73 73q114 -154 248 -256q118 -89 241 -89q83 0 143 39.5t60 120.5q0 69 -41 94q-30 20 -103 20h-161 q-209 0 -208 168q0 162 194 162h205v203h-738z" />
<glyph unicode="R" horiz-adv-x="932" d="M-4 892v73h1010v-73h-256v-276h-334q-85 0 -140 -71q-47 -63 -47 -141q0 -187 162 -260q87 -41 179 -41q59 0 117 33q85 45 86 135q0 98 -112 98q-43 0 -76 -28.5t-33 -68.5l18 -87q-16 -4 -59 -11q-24 63 -24 100q0 75 46.5 121.5t125.5 48.5h7q75 0 133 -43 q71 -51 71 -129q0 -122 -95 -187q-81 -55 -201 -55q-172 0 -300 92q-148 105 -148 277q0 126 77 205t203 79h249v209h-659z" />
<glyph unicode="S" horiz-adv-x="715" d="M-4 892v73h750v-73h-103v-397q0 -128 -62 -186t-169 -58t-175.5 57t-68.5 181v403h-172zM268 489q0 -156 138 -156t137 162v397h-275v-403z" />
<glyph unicode="T" horiz-adv-x="608" d="M-4 894v71h643v-71h-643zM134 422q0 258 304 257h341v-81h-313q-130 0 -182 -34q-63 -41 -63 -144q0 -114 112 -229l103 -104l-71 -69l-105 110q-126 126 -126 294z" />
<glyph unicode="U" horiz-adv-x="661" d="M67 474q0 6 8 7q2 0 20.5 27t22.5 27q47 -24 99 -24q105 0 182 49q87 57 88 158q0 79 -54 133.5t-131 54.5q-53 0 -91.5 -30t-38.5 -81q26 -26 138 -122l-69 -40q0 6 -80 71t-80 70t-2 14t-2 13q0 89 73 140q63 43 156 42q122 0 203 -73t81 -192q0 -217 -284 -272 q-64 -12 -93 -12h-8q34 -67 117.5 -117.5t160.5 -50.5q130 0 249 97q73 59 134 146v-144q-32 -41 -108 -93q-120 -81 -271 -81q-211 0 -373 208q-47 61 -47 75z" />
<glyph unicode="V" horiz-adv-x="912" d="M-4 892v73h1002v-73h-272v-290h-314q-73 0 -125 -48.5t-52 -119.5q0 -122 104 -189q89 -57 217 -56h73q-12 48 -13 74q0 100 114 100q43 0 70 -30.5t27 -72.5q0 -36 -28 -72t-65 -38q30 -57 128 -243q-101 -30 -102 -39q-43 109 -97 239h-93q-172 0 -292 78 q-138 91 -138 255q0 103 73 173t176 70h240v209h-633z" />
<glyph unicode="W" horiz-adv-x="628" d="M87 795q0 193 203 193q73 0 124 -39q59 -45 58 -114v-56h-85v56q0 81 -93 82q-101 0 -101 -120q0 -136 127 -203q61 28 157 29q12 0 52 -5v-73q-22 2 -36 2q-87 0 -152 -36q-79 -43 -79 -124q0 -79 44.5 -111.5t131.5 -32.5q103 0 272 114q81 55 138 117v-113 q-28 -36 -108 -85q-176 -107 -304 -108q-120 0 -201 53t-81 162q0 118 101 173q-168 101 -168 239z" />
<glyph unicode="X" horiz-adv-x="523" d="M-4 892v73h554v-73h-554zM114 576q0 63 75 63h573v-79h-403v-144q0 -57 -43 -57q-28 0 -115 93.5t-87 123.5z" />
<glyph unicode="Y" horiz-adv-x="425" d="M-4 892v73h446v-73h-201v-377q0 -168 163 -168q51 0 122.5 39.5t110.5 90.5v-124q-20 -16 -83 -43q-83 -34 -148 -34q-118 0 -192 70t-74 187v359h-144z" />
<glyph unicode="Z" horiz-adv-x="811" d="M-10 892v73h847v-73h-210v-347q99 99 188 100q71 0 118 -18l12 -7v-83q-16 2 -67 19q-39 12 -59 12q-51 0 -106.5 -36.5t-85.5 -83.5v-454h-96v361q-85 -85 -170 -85q-103 0 -162 63q-65 65 -65 180v379h-144zM229 501q0 -65 35.5 -108.5t100.5 -43.5q55 0 109.5 44.5 t54.5 99.5l2 399h-302v-391z" />
<glyph unicode="[" horiz-adv-x="425" d="M124 -225v1515h271v-94h-162v-1326h162v-95h-271z" />
<glyph unicode="\" horiz-adv-x="677" d="M67 1290h91l509 -1227h-97z" />
<glyph unicode="]" horiz-adv-x="425" d="M4 -130h162v1326h-162v94h272v-1515h-272v95z" />
<glyph unicode="^" horiz-adv-x="1013" d="M67 477l381 752h91l382 -752h-104l-326 634l-319 -634h-105z" />
<glyph unicode="_" horiz-adv-x="849" d="M-2 -26h827v-92h-827v92z" />
<glyph unicode="`" horiz-adv-x="334" d="M-59 1290h140l179 -240h-94z" />
<glyph unicode="a" horiz-adv-x="760" d="M-4 892v73h1249v-73h-616v-304l22 26q67 75 166 75q134 0 195 -97q49 -79 48 -205v-302h-99v288q0 235 -152 235q-83 0 -131.5 -52.5t-48.5 -135.5v-428h-90v371q-77 -85 -172 -85q-116 0 -170 59q-65 65 -65 180v375h-136zM229 501q0 -152 134 -152q67 0 120.5 39.5 t53.5 104.5l2 399h-310v-391z" />
<glyph unicode="b" horiz-adv-x="452" d="M-4 892v73h481v-73h-481zM107 432q0 122 84.5 200t207.5 78q57 0 153 -27v-87q-89 32 -138 33q-105 0 -140 -43l292 -264l97 82l-2 -106q-105 -116 -264 -116q-116 0 -203 71.5t-87 178.5zM199 434q0 -87 73 -134q61 -41 152 -40q49 0 89 28l-282 257q-32 -56 -32 -111z " />
<glyph unicode="c" horiz-adv-x="685" d="M116 762v55q0 174 188 175q79 0 137 -46t58 -123v-324h395v-83h-395v-152q0 -41 -41 -41q-47 0 -146 99q-87 87 -87 132t51 45h123v330q0 91 -101 92q-43 0 -69 -29.5t-26 -72.5v-57h-87z" />
<glyph unicode="d" horiz-adv-x="588" d="M-4 892v73h620v-73h-267v-387h448v-81h-448v-124q0 -34 -41 -34q-39 0 -127 77t-88 113q0 49 57 49h93v387h-247z" />
<glyph unicode="e" horiz-adv-x="567" d="M-4 892v73h598v-73h-201q20 -16 47 -65q39 -73 39 -131q0 -134 -126 -195q-59 -28 -130 -31q0 -45 63 -107q93 -93 227 -93q162 0 276 148v-132q-130 -93 -276 -93q-225 0 -333 164q-57 87 -68 164v22h89q180 0 180 159q0 83 -105 190h-280z" />
<glyph unicode="f" horiz-adv-x="750" d="M-4 892v73h835v-73h-269v-176q0 -272 -195 -272q-36 0 -69 8l146 -150l249 -272q-20 -22 -75 -58q-146 148 -533 594l77 67l65 -71q43 -45 97 -45q134 0 134 201v174h-462z" />
<glyph unicode="g" horiz-adv-x="750" d="M-12 892v73h789v-73h-789zM144 412q0 128 83 194q75 65 205 65q99 0 195 -63q63 -41 81 -69q89 69 269 96l11 -85q-187 -41 -236 -73q-47 -47 -182 -177l-67 71q45 45 140 120q-10 16 -67 48q-79 45 -156 45q-85 0 -136 -48.5t-51 -134.5q0 -126 122 -237q81 -71 160 -99 l-65 -77q-53 20 -156 109q-150 133 -150 315z" />
<glyph unicode="h" horiz-adv-x="1066" d="M-4 892v73h1186v-73h-292v-217q34 -4 91 -59q91 -85 92 -243q0 -130 -61 -213q-69 -93 -193 -93q-166 0 -229 162q-53 -152 -229 -152q-118 0 -189 89q-65 83 -65 203q0 124 67 209q73 93 193 93q154 0 229 -152q6 26 35.5 67t53.5 55q51 28 106 34v217h-795zM199 369 q0 -215 166 -215q140 0 185 215q0 57 -37 124q-53 101 -148 101q-83 0 -128 -75q-38 -61 -38 -150zM641 363q0 -52 32 -118q51 -105 154 -105q83 0 124 77q30 61 30 152q0 227 -168 227q-81 0 -132 -97q-40 -75 -40 -136z" />
<glyph unicode="i" horiz-adv-x="454" d="M-4 892v73h485v-73h-485zM122 474q0 91 81 173q67 69 211 69q63 0 131 -29l23 -79q-67 30 -144 31q-193 0 -193 -169q0 -77 50 -129.5t127 -54.5h4q151 0 267 136v-112q-24 -24 -87 -55q-89 -43 -168 -42q-136 0 -213 65q-89 74 -89 196z" />
<glyph unicode="j" horiz-adv-x="709" d="M-4 890v73h787v-73h-221q87 -85 87 -219q0 -162 -102.5 -249t-264.5 -89l316 -323l-59 -71l-448 452l65 65l63 -52q272 0 322 180q8 26 13 93v12q0 69 -44 134q-48 71 -129 71q-47 0 -97.5 -36.5t-50.5 -80.5q0 -8 4 -17q43 -28 102 -69q14 -12 103 -75l4 -85 q-59 47 -158 108q-41 22 -79 44q-55 32 -63 57q-4 14 -4 29q0 57 65 121h-211z" />
<glyph unicode="k" horiz-adv-x="458" d="M-4 892v73h505v-73h-223l383 -375v-174q-120 -67 -221 -67q-112 0 -195 63q-91 69 -91 178v375h-158zM262 513q0 -77 51.5 -119.5t130.5 -42.5q146 0 205 77v24l-387 379v-318z" />
<glyph unicode="l" horiz-adv-x="770" d="M-4 892v73h829v-73h-280v-176q0 -132 -75 -203h471v-65h-649l357 -422l-71 -58l-499 596l63 63l65 -71q41 -41 111 -41q136 0 136 203v174h-458z" />
<glyph unicode="m" horiz-adv-x="912" d="M-4 892v73h971v-73h-233v-265h-442q-65 0 -65 -53q0 -69 130 -97q55 18 144 18q144 0 223 -61q77 -59 77 -153q0 -68 -58 -114q-56 -44 -139 -43h-14l-6 71q51 4 57 4q24 4 42 16q30 22 31 51q0 150 -204 150h-11q-138 -2 -207 -55t-69 -114t57 -123q63 -69 174 -114 q103 -43 217 -44v-90q-122 0 -292 71q-116 49 -183.5 130t-67.5 162q0 132 148 207q-140 28 -140 142q0 57 57 91q49 28 113 29h325v184h-635z" />
<glyph unicode="n" horiz-adv-x="841" d="M-8 892v73h1292v-73h-601v-276q67 81 165 82q112 0 184 -59q91 -71 95 -189q0 -6 1 -12q0 -208 -199 -331q-2 -2 -6 -4l-63 77q2 2 8 5q162 91 162 247q0 93 -53 142q-47 41 -123 40q-93 0 -138 -77q-32 -55 -33 -140v-401h-93v284q-49 -43 -101 -61q-152 -112 -347 -251 l-57 81l262 158q-81 10 -140 57q-89 73 -89 192q0 112 81 185t186 73q87 0 152 -45v-81q-89 49 -142 49q-75 0 -127.5 -51t-52.5 -126q0 -77 49.5 -129.5t126.5 -52.5q85 0 152 50q47 34 47 57v507h-598z" />
<glyph unicode="o" horiz-adv-x="634" d="M-4 892v73h665v-73h-665zM130 537q136 158 298 159q120 0 239 -86q99 -71 132 -117v-160l-491 -313l-57 79l534 315q-49 77 -156 140q-79 47 -161 54q-12 1 -23 2q-127 0 -244 -142z" />
<glyph unicode="p" horiz-adv-x="912" d="M-4 892v73h1002v-73h-282v-241h-331q-150 0 -150 -146q0 -105 89 -170q79 -59 189 -59q47 0 101 10q2 26 21 91q32 63 93 63q91 0 91 -91q0 -53 -53 -96q-36 -28 -58 -32q43 -166 117 -288h-105q-20 39 -55.5 141t-37.5 137l-21 -8l-399 -274l-61 85l355 191l-59 2 q-114 6 -210 91t-96 207q0 93 62 156t159 63h266v168h-627z" />
<glyph unicode="q" horiz-adv-x="425" d="M-4 892v73h454v-73h-209v-365q0 -162 158 -162q97 0 226 140v-104l-471 -423l-65 73l304 245q-126 12 -182 61q-71 61 -71 186v349h-144z" />
<glyph unicode="r" horiz-adv-x="721" d="M-4 892v73h1135v-73h-581v-229q142 61 192 61q93 0 160 -64t67 -157q0 -75 -41.5 -156t-100.5 -136l-69 65q109 93 110 237q0 59 -43.5 99.5t-102.5 40.5q-73 0 -170 -75l-21 -8q-45 -118 -172 -118q-32 0 -61 8l395 -419l-73 -65l-523 586l65 71l63 -71q43 -45 99 -45 q32 0 67 22q67 41 67 179v174h-462z" />
<glyph unicode="s" horiz-adv-x="758" d="M-4 892v73h1290v-73h-704v-237h233q57 36 120 36q120 0 190 -101q61 -87 61 -199q0 -118 -71 -239q-6 -8 -24 -34l-71 -106l-85 69q160 185 160 306q0 83 -43 154q-41 69 -125 69h-4q-47 0 -73 -34q-34 -45 -35 -102q0 -43 45 -101q4 -14 -18 -45q-14 -18 -41 -14 q-22 2 -26 12q-49 61 -55 142q-1 9 -1 19q0 54 31 97q2 0 6 4h-186q-22 -59 -75 -97.5t-116 -38.5q-32 0 -61 10l378 -423l-76 -59l-500 582l65 71l62 -71q39 -45 98 -45q32 0 65 22q69 45 69 179v174h-483z" />
<glyph unicode="t" horiz-adv-x="405" d="M-24 890v73h450v-73h-179v-894h-95v894h-176z" />
<glyph unicode="u" horiz-adv-x="405" d="M-24 890v73h170q-83 71 -83 209q0 107 76 175t185 68q182 0 347 -109q61 -34 288 -209v-120q-219 189 -290 234q-176 116 -334 115q-79 0 -132 -44.5t-53 -121.5q0 -95 85 -197h189v-73h-181v-894h-95v894h-172z" />
<glyph unicode="v" horiz-adv-x="405" d="M-391 1138q0 223 231 223q241 0 361 -294q2 -6 30 -104h205v-73h-197v-894h-95v894h-180v73h178q0 20 -26 83q-97 241 -274 242q-140 0 -140 -150q0 -77 75 -183h-103q-65 98 -65 183z" />
<glyph unicode="w" horiz-adv-x="405" d="M-24 890v73h170q-91 77 -91 209q0 107 76 175t193 68q182 0 347 -109q61 -36 288 -213v-116q-219 189 -290 234q-176 116 -334 115q-79 0 -132 -44.5t-53 -121.5q0 -99 81 -197h201v-73h-189v-894h-95v894h-172zM866 1298v132h136v-132h-136z" />
<glyph unicode="x" horiz-adv-x="405" d="M-28 890v73h164q-75 91 -75 199q0 116 83 187.5t201 71.5q128 0 265 -85q55 -28 221 -144q0 85 2 94q2 34 19 58q59 85 192 86h140v-71h-140q-77 0 -115 -57q-28 -41 -29 -110q0 -55 47 -101l95 -89l-81 -25q-416 361 -598 361q-83 0 -143 -52.5t-60 -135.5q0 -49 10 -90 q16 -65 49 -97h213v-73h-193v-894h-95v894h-172z" />
<glyph unicode="y" horiz-adv-x="405" d="M-387 1138q0 227 227 227q243 0 365 -298q14 -39 34 -104h197v-73h-197v-894h-95v894h-189v73h187q0 20 -26 83q-97 241 -274 242q-128 0 -128 -150q0 -93 59 -183h-104q-56 92 -56 183zM211 1249v126h130v-126h-130z" />
<glyph unicode="z" horiz-adv-x="446" d="M-422 1144q0 97 51 155t158 58q160 0 258 -144q2 205 204 204h169v-69h-185q-112 0 -111 -144q0 -47 107 -241h239v-73h-229v-894h-95v894h-189v73h179q-4 16 -49 83q-148 231 -276 231q-65 0 -96 -39.5t-31 -104.5q0 -93 58 -178h-95q-67 96 -67 189z" />
<glyph unicode="{" horiz-adv-x="575" d="M134 485v95q118 0 117 257v244q0 209 148 209h86v-94h-37q-85 0 -85 -166v-229q0 -77 -26 -148q-30 -85 -86 -120q20 -14 41 -38q71 -89 71 -229v-232q0 -164 85 -164h37v-95h-86q-77 0 -115 69q-32 57 -33 140v243q1 258 -117 258z" />
<glyph unicode="|" horiz-adv-x="395" d="M138 63v1227h93v-1227h-93z" />
<glyph unicode="}" horiz-adv-x="575" d="M63 -130h36q87 0 88 164v232q0 116 48 196q32 51 63 69q-112 93 -111 270v229q0 166 -88 166h-36v94h87q146 0 146 -209v-242q0 -258 120 -257v-97q-120 0 -120 -258v-243q0 -209 -146 -209h-87v95z" />
<glyph unicode="~" horiz-adv-x="1013" d="M109 460q77 146 211 146q63 0 185 -53.5t164 -53.5q71 0 144 115l65 -64q-51 -73 -85 -100q-57 -47 -126 -46q-63 0 -178.5 53.5t-176.5 53.5q-85 0 -138 -116z" />
<glyph unicode="&#xa1;" d="M-811 1348h89q-4 -43 10 -81q32 -95 140 -95q47 0 88.5 26.5t55.5 68.5q10 34 6 81h61q39 79 170 80q138 0 159 -3v-83q-16 2 -29 2q-69 -2 -117 -2q-128 0 -128 -127q0 -140 103 -264h-77q-14 12 -51 75q-45 79 -56 154q-75 -67 -187 -67q-253 0 -237 235z" />
<glyph unicode="&#xa2;" horiz-adv-x="405" d="M-28 890v73h172q-83 101 -83 199q0 116 83 187.5t201 71.5q136 0 269 -85q45 -26 209 -144q0 73 4 98q4 39 21 62q55 77 188 78h140v-71h-140q-77 0 -115 -57q-28 -41 -29 -110q0 -55 47 -101l24 -20l71 -61l-81 -33q-180 158 -276 223q-197 138 -314 138 q-83 0 -143 -52.5t-60 -135.5q0 -103 83 -187h189v-73h-193v-894h-95v894h-172zM1093 1115v118h120v-118h-120z" />
<glyph unicode="&#xa3;" horiz-adv-x="405" d="M-26 890v73h156q-6 6 -51 77q-22 36 -22 110q0 114 101 190q77 57 215 57q187 0 432 -118q185 -89 404 -212v-106q-570 347 -822 347q-114 0 -168 -41q-69 -49 -69 -150q0 -75 75 -154h205v-73h-191v-894h-95l2 894h-172zM1166 1267v126h140v-126h-140z" />
<glyph unicode="&#xa4;" horiz-adv-x="405" d="M-26 890v73h156q-6 6 -51 77q-22 36 -22 110q0 114 101 190q77 57 215 57q187 0 432 -118q49 -18 300 -152q-10 79 -10 84q0 77 53.5 135.5t133.5 74.5q57 12 164 7v-82q-22 0 -65 -2h-65q-59 0 -105 -56q-39 -45 -39 -114q0 -105 112 -166l-75 -47q-570 347 -822 347 q-114 0 -168 -41q-69 -49 -69 -150q0 -75 75 -154h205v-73h-191v-894h-95v894h-170z" />
<glyph unicode="&#xa5;" horiz-adv-x="405" d="M-26 890v73h156q-6 6 -51 77q-22 36 -22 110q0 114 101 190q77 57 215 57q187 0 432 -118q49 -18 300 -152q-10 79 -10 84q0 77 53.5 135.5t133.5 74.5q57 12 164 7v-78h-65q-43 -2 -65 -2q-55 0 -105 -60q-39 -45 -39 -114q0 -105 112 -166l-75 -47q-570 347 -822 347 q-114 0 -168 -41q-69 -49 -69 -150q0 -75 75 -154h205v-73h-191v-894h-95v894h-170zM1409 1107v118h120v-118h-120z" />
<glyph unicode="&#xa6;" horiz-adv-x="446" d="M-418 1136q0 105 51 163t154 58q118 0 201 -78q43 -36 61 -75v5q0 209 172 208h197v-69h-189q-51 0 -81 -44.5t-30 -115.5q0 -30 107 -225h243v-73h-229v-894h-95v894h-180v73h170q-4 16 -49 83q-150 235 -276 236q-61 0 -94 -43t-33 -106q0 -95 40 -178h-93 q-47 80 -47 181zM298 1115v102h112v-102h-112z" />
<glyph unicode="&#xa7;" d="M-744 1314v114q217 4 385 -252l-4 47q0 180 207 180h122v-79h-120q-134 0 -134 -152q0 -112 95 -264h-83q-136 266 -294 361q-67 41 -174 45zM-136 1111v112h124v-112h-124z" />
<glyph unicode="&#xa8;" d="M-833 1136v95h28q65 0 120 -25q118 -53 286 -255l-80 -2q-174 187 -314 187h-40zM-740 1322v106q217 4 395 -272q-6 79 -6 67q0 91 54 145.5t145 54.5h122v-79h-112q-134 0 -134 -172q0 -122 79 -247h-79q-18 30 -85 138q-101 152 -205 214q-67 41 -174 45zM-144 1111 v112h124v-112h-124z" />
<glyph unicode="&#xa9;" d="M-917 -410l67 98q63 -63 175 -122q154 -83 312 -85q81 0 144 24q85 34 83 104q0 51 -49 81q-43 24 -95 24q-39 0 -170 -77l-49 83q99 83 219 83q105 0 180.5 -54.5t75.5 -156.5q0 -195 -347 -194q-191 0 -367 85q-118 58 -179 107z" />
<glyph unicode="&#xaa;" d="M-639 -410q0 93 73 146q63 45 160 45q150 0 323 -172l144 -140l-69 -73q-126 140 -140 148q-138 146 -245 146q-144 0 -144 -110q0 -41 32.5 -63t74.5 -22q20 0 69 10t57 21l40 -86q-97 -36 -158 -36q-89 0 -150 46q-67 53 -67 140z" />
<glyph unicode="&#xab;" d="M-454 1247q0 95 59.5 149t155.5 54h217l2 -79q-6 0 -47 2h-59q-69 -2 -103 -2q-59 0 -94.5 -48t-35.5 -108q0 -130 138 -264h-81q-30 24 -81 101q-71 110 -71 195zM-142 1121v116h126v-116h-126z" />
<glyph unicode="&#xac;" d="M-397 -93q0 75 87 109q65 24 150 23l24 -71q-49 6 -97 -9q-65 -18 -65 -60q0 -22 20 -50.5t43 -28.5q55 14 87 14q16 0 81 -8l31 -73q-59 12 -88 12q-47 0 -85 -23q-53 -30 -53 -89q0 -85 120 -85q57 0 132 51l46 -77q-83 -45 -172 -45q-77 0 -144 39q-77 47 -77 133 q0 61 55 112q-95 37 -95 126z" />
<glyph unicode="&#xad;" horiz-adv-x="922" d="M193 440v79h596v-79h-596z" />
<glyph unicode="&#xae;" horiz-adv-x="865" d="M-4 892v73h898v-73h-176v-245l-353 -2q-63 0 -91 -18q-45 -26 -35 -77q8 -36 87 -65h641v-73h-523q-77 0 -136 -51t-59 -128q0 -118 201 -176q136 -41 258 -37l-23 -99q-20 -4 -146 14q-197 30 -298 114q-97 77 -97 190q0 95 118 189q-24 6 -65 38q-63 53 -63 122 q0 61 65 103q57 36 121 37h294v164h-618z" />
<glyph unicode="&#xaf;" horiz-adv-x="1336" d="M-4 892v73h1367v-73h-163v-896h-105v191h-318v-104q0 -41 -39 -40q-41 0 -114.5 68.5t-76.5 109.5q-2 39 51 39h71v158h-261q-69 0 -116 -54t-47 -123q0 -101 150 -194q91 -57 219 -110l-34 -89q-103 28 -249 130q-178 124 -179 265q0 130 118 191q-32 6 -71 26 q-85 47 -85 134q0 59 42.5 96.5t103.5 37.5h328v164h-592zM203 588q0 -32 42.5 -61.5t103.5 -29.5h428v-237h318v632h-404v-245h-419q-24 0 -46.5 -17.5t-22.5 -41.5z" />
<glyph unicode="&#x2c9;" horiz-adv-x="1336" d="M-4 892v73h1367v-73h-163v-896h-105v191h-318v-104q0 -41 -39 -40q-41 0 -114.5 68.5t-76.5 109.5q-2 39 51 39h71v158h-261q-69 0 -116 -54t-47 -123q0 -101 150 -194q91 -57 219 -110l-34 -89q-103 28 -249 130q-178 124 -179 265q0 130 118 191q-32 6 -71 26 q-85 47 -85 134q0 59 42.5 96.5t103.5 37.5h328v164h-592zM203 588q0 -32 42.5 -61.5t103.5 -29.5h428v-237h318v632h-404v-245h-419q-24 0 -46.5 -17.5t-22.5 -41.5z" />
<glyph unicode="&#xb0;" horiz-adv-x="1176" d="M-12 892v73h1206v-73h-198v-896h-102v225h-276v-114q0 -45 -38 -44q-32 0 -122.5 83t-90.5 114q0 39 47 42h99v144h-207q-77 0 -129.5 47.5t-52.5 124.5q0 55 40.5 90.5t95.5 35.5h210v148h-482zM221 606q0 -83 85 -83h308v-223h280v592h-320v-221h-288q-65 0 -65 -65z " />
<glyph unicode="&#xb1;" horiz-adv-x="815" d="M83 130l41 89q36 -47 140.5 -103.5t157.5 -56.5q95 0 140 26q77 45 77 132q0 79 -167.5 215t-213.5 180q-140 130 -138 195q4 156 184 156h385v-67h-389q-39 0 -67 -22t-28 -59q0 -49 85 -122q30 -32 158 -135q284 -233 284 -347q0 -116 -99 -175q-83 -51 -205 -50 q-154 0 -345 144z" />
<glyph unicode="&#xb2;" horiz-adv-x="906" d="M-4 892v73h935v-73h-436v-217q0 -166 -134 -201q-39 -10 -91 5q34 -55 119 -161q168 -164 349 -164q93 0 377 164q2 -41 4 -79q-286 -148 -359 -152l-529 -221l-40 91l425 140q-140 26 -300 177q-59 55 -127 160q-75 114 -108 205l89 36q28 -81 43 -101q28 -47 83 -47 q120 0 120 154v211h-420zM683 547q0 89 60 140t155 51q49 0 92 -8l4 -65q-47 12 -92 12q-59 0 -97 -28q-45 -32 -45 -89q0 -124 157 -124q97 0 206 89v-89q-126 -73 -215 -73t-154 47q-71 50 -71 137z" />
<glyph unicode="&#xb3;" horiz-adv-x="608" d="M-8 892v73h701v-73h-322q-142 0 -142 -123q0 -122 136 -124l109 -2v-75h-87q-53 0 -86 -41.5t-33 -96.5q0 -75 55.5 -123.5t132.5 -48.5q93 0 223 93q114 81 165 168l-5 -132q-93 -83 -170 -125l-440 -313l-57 94l290 160h-14q-118 0 -186 57q-77 65 -77 170q0 89 97 172 q-39 6 -73 31q-63 45 -63 123q0 91 57 128l16 8h-227z" />
<glyph unicode="&#xb4;" horiz-adv-x="640" d="M-4 892v73h671v-73h-671zM95 637v77h592v-77h-125q-47 0 -110 -49q-83 -63 -83 -158q0 -140 150 -140q73 0 183 63q93 55 158 119v-113q-154 -120 -527 -398l-53 71l282 189l2 8q-47 -12 -77 -12q-93 0 -158 59t-65 150q0 140 150 211h-319z" />
<glyph unicode="&#xb5;" horiz-adv-x="794" d="M-4 894v71h825v-71h-825zM112 667h103q16 -158 124 -259q97 -91 206 -96q154 -6 155 150q0 57 -56 101.5t-115 46.5v61h487v-73l-339 2q97 -57 98 -158q0 -103 -71 -157t-175 -48q-138 8 -253 114q-130 119 -164 316zM298 -22l700 346v-73l-647 -363z" />
<glyph unicode="&#x3bc;" horiz-adv-x="794" d="M-4 894v71h825v-71h-825zM112 667h103q16 -158 124 -259q97 -91 206 -96q154 -6 155 150q0 57 -56 101.5t-115 46.5v61h487v-73l-339 2q97 -57 98 -158q0 -103 -71 -157t-175 -48q-138 8 -253 114q-130 119 -164 316zM298 -22l700 346v-73l-647 -363z" />
<glyph unicode="&#xb6;" horiz-adv-x="859" d="M-10 892v73h890v-73l-253 2v-288h-372q-79 0 -79 -81q0 -51 63 -71q18 -6 39 -6q39 0 330 -2h446v-65h-381q51 -63 51 -113q-2 -213 -357 -213v-14q67 -49 241 -155l-52 -87q-59 43 -278 219q-57 6 -126 37q-34 16 -61.5 52.5t-27.5 68.5q0 30 24.5 53.5t54.5 23.5 q79 0 184 -117q22 -8 69 -8q89 0 161 28q93 41 93 116t-49 93q-18 8 -103 8h-219q-67 0 -124 43q-63 47 -63 111q0 75 61 118q53 36 130 36h247v211h-539zM742 39l321 320l2 -87l-258 -294z" />
<glyph unicode="&#xb7;" horiz-adv-x="661" d="M51 497q0 2 54 63q34 -30 124 -31q266 0 266 203q0 77 -58 125.5t-135 48.5q-45 0 -93 -20q-59 -26 -59 -65q0 -18 89 -73q71 -45 71 -57l-50 -62q-12 16 -84 67q-73 45 -97 77q-18 26 -18 50q0 67 95 120q75 41 150 40q118 0 193 -56q91 -69 91 -189q0 -134 -94.5 -211 t-242.5 -73q-24 -2 -97 0q43 -85 129 -129.5t198 -44.5q217 0 391 188v-129l-635 -369q-8 0 -54 85l336 154h-65q-239 0 -367 188q-12 19 -38 100z" />
<glyph unicode="&#x2219;" horiz-adv-x="661" d="M51 497q0 2 54 63q34 -30 124 -31q266 0 266 203q0 77 -58 125.5t-135 48.5q-45 0 -93 -20q-59 -26 -59 -65q0 -18 89 -73q71 -45 71 -57l-50 -62q-12 16 -84 67q-73 45 -97 77q-18 26 -18 50q0 67 95 120q75 41 150 40q118 0 193 -56q91 -69 91 -189q0 -134 -94.5 -211 t-242.5 -73q-24 -2 -97 0q43 -85 129 -129.5t198 -44.5q217 0 391 188v-129l-635 -369q-8 0 -54 85l336 154h-65q-239 0 -367 188q-12 19 -38 100z" />
<glyph unicode="&#xb8;" horiz-adv-x="588" d="M97 795q0 95 55 148t148 53q73 0 128 -42t55 -119v-36h-86v36q0 81 -93 82q-51 0 -83 -34.5t-32 -85.5q0 -136 144 -164q59 30 154 30q12 0 52 -4v-71h-36q-89 0 -156 -30q-87 -39 -87 -118q0 -67 56 -105q51 -32 120 -33q89 0 199 55q101 51 166 122v-114 q-138 -91 -590 -377l-53 83l327 174q-34 -6 -71 -6q-99 0 -169 47q-81 55 -81 150q0 97 83 150q6 2 19 10q-169 61 -169 199z" />
<glyph unicode="&#xb9;" horiz-adv-x="523" d="M-4 892v73h554v-73h-554zM81 594q0 63 77 63h594v-79h-421v-158q4 -41 -45 -41q-30 0 -117.5 92.5t-87.5 122.5zM156 101l598 313v-73l-533 -323z" />
<glyph unicode="&#xba;" horiz-adv-x="565" d="M-4 892v73h596v-73h-195q20 -16 43 -50q39 -59 39 -118q0 -126 -118 -179q-59 -26 -122 -26q0 -26 33 -69q36 -49 85 -75q73 -41 176 -40q166 0 260 115v-103l-505 -361l-57 81l337 199h-39q-168 0 -274 81q-136 105 -135 243q39 -4 77 -4q187 0 186 144q0 87 -107 162 h-280z" />
<glyph unicode="&#xbb;" horiz-adv-x="454" d="M-4 892v73h485v-73h-485zM75 55l371 172h-18q-128 -6 -205 55q-97 77 -97 170q0 112 73 183q79 81 190 81q63 0 132 -29l22 -79q-67 32 -135 33q-77 0 -124 -49q-53 -51 -53 -144q0 -45 53 -98.5t130 -53.5q122 0 265 118v-102q-51 -51 -261 -176l-290 -172z" />
<glyph unicode="&#xbc;" horiz-adv-x="922" d="M-4 892v73h1004v-73h-258v-245h-430q-99 0 -99 -87q0 -57 61 -79h38q118 28 213 28q132 -2 219 -53q105 -63 106 -198q2 -152 -132 -254l-75 53q114 89 113 190q0 93 -60 130l-17 -20l-235 -243l-59 60l242 244q-10 4 -29 10q-30 6 -95 6q-107 0 -187 -57 q-87 -61 -87 -176q0 -203 264 -339l-57 -85q-81 41 -166 136q-128 140 -126 296q2 93 53 160q34 45 54 55l-36 18q-87 49 -87 134q0 16 4 34q20 118 184 118h325v164h-645z" />
<glyph unicode="&#xbd;" horiz-adv-x="912" d="M-12 892v73h995v-73h-239v-217h-411q-93 0 -94 -99q0 -89 126 -138q67 -26 154 -26q89 0 179 42q79 39 127 93l87 -56q-77 -69 -168 -112v-255h-424q-124 0 -123 -98q0 -156 280 -156q97 0 176 23q120 32 120 99q0 61 -55 99q4 6 79 61q69 -95 69 -156q0 -97 -105.5 -149 t-290.5 -52q-373 0 -373 221q0 89 67 138q55 39 136 39h347v160q-61 -12 -106 -12q-144 0 -255 46q-146 65 -146 189q0 170 197 170h310v146h-659z" />
<glyph unicode="&#xbe;" horiz-adv-x="851" d="M-4 892v73h1000v-73h-337v-128q217 -18 217 -204q0 -122 -118 -179q-59 -26 -115 -30v-120q12 -2 46 -12q152 -51 153 -195q0 -116 -110 -172q-87 -47 -213 -47q-152 0 -259 55q-136 71 -136 209q0 69 52.5 116.5t121.5 47.5h245v104q-12 -2 -62 0q-99 2 -203 56 q-142 77 -142 203q0 170 184 170h240v126h-564zM221 65q0 -97 103 -148q83 -43 191 -43q81 0 156 35q93 41 91 111q-4 164 -308 150l-123 -6q-110 -6 -110 -99zM231 596q0 -95 102 -148q81 -41 186 -40q272 0 272 152q0 120 -175 138q-85 8 -170 4l-113 -6 q-102 -7 -102 -100z" />
<glyph unicode="&#xbf;" horiz-adv-x="993" d="M-4 892v73h1133v-73h-326v-172h-353q-55 0 -55 -39q0 -81 187 -81q39 0 118 12.5t117 12.5q128 0 128 -94q0 -105 -134 -162v-215h-430q-39 0 -68 -26.5t-29 -64.5q0 -109 124 -175q101 -55 221 -54q174 0 174 99q0 51 -73 51q-95 0 -110 -108l-58 4q22 168 186 169 q140 0 140 -106q0 -176 -257 -176q-128 0 -258 53q-191 79 -188 253q0 67 46.5 109.5t113.5 42.5h367v108q-164 -6 -331 32q-144 32 -259 95q2 0 38 83q32 -22 67 -38q67 -34 158 -65q69 -22 225 -34q75 -6 148 24q91 36 90 101q0 24 -47 23q-34 -2 -120 -15 q-77 -10 -121 -10q-114 0 -191 65q-41 34 -41 97q0 87 116 88h270v113h-718z" />
<glyph unicode="&#xc0;" horiz-adv-x="559" d="M-4 892v73h592v-73h-170v-462q0 -67 -37 -67q-53 0 -139 85t-86 136q0 28 45 28h123v280h-328zM199 47l590 371v-73l-527 -384q-20 31 -63 86z" />
<glyph unicode="&#xc1;" horiz-adv-x="770" d="M-8 892v73h837v-73h-312v-205h8h77q229 0 408 -115l-2 -57q-130 51 -177 63q-103 28 -215 28h-109q-4 -87 -73 -127q-47 -26 -108 -27q-32 0 -64 6l350 -424l-62 -62l-471 569l51 88l63 -71q43 -45 109 -45q99 0 120 93q4 20 4 108v178h-434zM653 260l355 247v-69 l-306 -258z" />
<glyph unicode="&#xc2;" horiz-adv-x="760" d="M-8 892v73h1253v-73h-629v-304l23 26q67 75 162 75q126 0 187 -97q49 -79 48 -205v-302h-91v288q0 231 -160 231q-69 0 -119 -50.5t-50 -133.5v-424h-85v393q-18 -26 -83 -95l-296 -290q-14 18 -67 77l250 205q-195 39 -195 296v310h-148zM225 578q0 -215 148 -215 q71 0 118 73q41 65 40 140v316h-306v-314z" />
<glyph unicode="&#xc3;" horiz-adv-x="705" d="M36 440q45 22 144 75q81 47 130 89v2q-20 4 -65 51q-65 65 -65 144t57 128.5t138 49.5t144 -46q67 -53 67 -132q0 -69 -59 -132q-39 -45 -63 -53q53 -28 138 -71q22 -12 91 -44l37 -18l16 -9l171 128v-97l-550 -408l-65 79l367 250q-57 26 -138 65q-53 24 -123 81l-11 10 q-2 0 -4 2q-63 -65 -140 -122q-59 -45 -154 -99zM272 801q0 -41 38.5 -88.5t74.5 -47.5q26 0 61 49.5t35 80.5q0 49 -28.5 82t-75.5 33q-105 0 -105 -109z" />
<glyph unicode="&#xc4;" horiz-adv-x="953" d="M-4 892v73h1052v-73h-282v-265h-478q-65 0 -65 -53q0 -63 132 -108q99 32 211 33q255 0 324 -120q22 -39 12 -81q-16 -71 -103 -87q-4 0 -126 -8q-77 -14 -79 -71q-2 -112 175 -112q57 0 125 14q-6 -10 -6 -91q-55 -6 -109 -6q-282 0 -282 185q0 103 89 140q51 18 178 22 q51 2 51 42q0 12 -8 29q-39 73 -260 67q-99 -2 -182 -43q-93 -47 -132 -130q-18 -36 -18 -77q0 -103 140 -217q107 -87 241 -146q12 -8 33 -20l-45 -75q-26 4 -148 75q-310 182 -310 398q0 140 146 235q-152 57 -152 166q0 57 54.5 89.5t107.5 32.5l389 -2v184h-675z" />
<glyph unicode="&#xc5;" horiz-adv-x="904" d="M-4 892v73h1010v-73h-280v-290h-341q-61 0 -101.5 -39.5t-40.5 -100.5q0 -114 73 -186.5t189 -72.5h107q-14 59 -2 91q26 69 108 69q114 0 113 -110q0 -34 -25 -61.5t-60 -31.5q8 -36 55 -148.5t63 -135.5h-146q-63 0 -106.5 -24t-43.5 -89q0 -59 52 -94q30 -20 114 -20 h191v-83h-207q-105 0 -168 45q-79 57 -80 156q0 164 252 180l-65 179q-176 0 -215 4q-112 16 -191 85q-112 97 -111 247q0 97 63 159t160 62h266v209h-633z" />
<glyph unicode="&#xc6;" horiz-adv-x="1003" d="M-4 892v73h1417v-73h-571v-302q61 112 178 112q124 0 184 -49q93 -75 98 -201q4 -130 -110 -355l-99 43q116 152 116 310q0 107 -86 154q-36 20 -91 21q-71 0 -128.5 -55t-57.5 -132v-440h-96v614h-225q-73 0 -128.5 -45.5t-55.5 -116.5q0 -95 60 -211q53 -105 130 -178 l-83 -63q-195 223 -195 428q0 55 33 115q28 51 57 71h-296v71h703v209h-754z" />
<glyph unicode="&#xc7;" horiz-adv-x="721" d="M95 383q0 107 100 177q61 43 107 44v8q-41 6 -77 37q-61 53 -63 124q-4 85 50 139.5t155 54.5t157 -52.5t52 -145.5q-2 -77 -61 -124q-36 -28 -73 -35q55 -43 213 -42q128 0 207 63v-84q-69 -47 -207 -52q-89 -4 -195 32q-69 24 -89 51q-193 -45 -189 -203q2 -75 58 -135 t131 -62q99 -2 138 33q-30 32 -30 73q0 83 77 83q34 0 56.5 -26.5t22.5 -62.5q0 -34 -23 -53q-2 -4 -16 -22l164 -266l-85 -8l-146 227q-55 -41 -154 -42q-97 -2 -172 46q-108 71 -108 223zM247 764q0 -85 128 -144q126 51 126 140q0 142 -134 142q-120 0 -120 -138z M724 892v73h122v-73h-122z" />
<glyph unicode="&#xc8;" horiz-adv-x="912" d="M-4 892v73h987v-73h-239v-217h-411q-93 0 -94 -99q0 -89 126 -138q67 -26 154 -26q89 0 179 42q79 39 127 93l87 -56q-77 -69 -168 -112v-235h-397q-41 0 -69.5 -29.5t-28.5 -69.5q0 -164 292 -165q65 0 152 35q101 41 173 105l69 -65q-75 -65 -187.5 -108.5 t-202.5 -43.5q-395 0 -395 246q0 67 44.5 115.5t111.5 48.5h341v140q-61 -12 -106 -12q-144 0 -255 46q-146 65 -146 189q0 170 197 170h310v146h-651z" />
<glyph unicode="&#xc9;" horiz-adv-x="993" d="M-4 892v73h1142v-73h-339v-217l-329 2q-83 0 -83 -50q0 -101 195 -102q12 0 99 16q12 2 59 15q39 10 61 10q144 0 144 -130q0 -109 -114 -168q-91 -49 -211 -51q-49 0 -194 30q-51 10 -51 -67q0 -87 203 -87q43 0 126 21.5t125 21.5q47 0 85.5 -31.5t38.5 -78.5 q2 -118 -109 -182q-93 -53 -219 -53q-195 0 -380 112q-107 65 -172 127q0 10 61 75q81 -75 172 -133q156 -103 319 -104q77 0 144 37q81 43 81 113q0 41 -51 41q-39 0 -119 -19.5t-120 -19.5q-255 4 -256 165q0 47 24 101q-130 69 -265 176q63 81 67 79q87 -85 176 -144 q150 -101 304 -101q67 0 142 32q97 41 96 108q0 39 -69 38q-32 0 -96.5 -10t-96.5 -10q-180 0 -239 77q-34 47 -35 98q0 122 175 121h211v142h-702z" />
<glyph unicode="&#xca;" horiz-adv-x="681" d="M-4 892v73h712v-73h-712zM43 616v71h847v-71h-387q-75 0 -129 -46.5t-54 -119.5q0 -95 110 -229q8 -10 140 -128l-83 -71q-262 260 -262 428q0 91 75 154q6 2 14 12h-271z" />
<glyph unicode="&#xcb;" horiz-adv-x="744" d="M-4 892v73h843v-73h-281v-194h-268q-105 0 -105 -75q0 -24 25 -67t48 -53l4 2q6 4 46 12q75 16 106 16q10 0 65 -4l48 -77q-39 2 -71 2q-207 0 -207 -130q0 -160 185 -160q34 0 63 4q-6 22 -6 43q0 114 101 113q89 0 89 -95q0 -32 -27 -62.5t-60 -32.5l89 -229l-89 -27 l-69 225q-39 -6 -81 -6q-296 0 -296 229q0 79 71 132q-28 6 -71 43q-67 59 -67 126q0 130 142 142q16 2 28 0h213v123h-468z" />
<glyph unicode="&#xcc;" horiz-adv-x="1196" d="M-26 892v73h1320v-73h-268v-280l-217 -2q-30 2 -75 0q-150 -8 -150 -178q0 -83 99 -164q55 -47 159 -47q103 0 154 45q-32 43 -33 83q0 77 85 77q36 0 59.5 -26.5t23.5 -62.5q0 -51 -38 -88l79 -340l-93 -12l-63 302q-32 -26 -116 -45q-16 -4 -67 -8 q-51 -140 -117.5 -199t-172.5 -59q-138 0 -194 108q-26 51 -10 148l14 22q-75 -30 -130 -20q-71 12 -112.5 69t-29.5 126q14 77 75 125q34 26 120 27q6 0 26 -6q16 -4 26 0l-4 -67q-30 4 -52 4q-89 0 -106 -89q-8 -49 22.5 -84.5t79.5 -43.5q63 -10 109 20l41 26l38 -56 l-40 -27q-8 -6 -12 -24q-10 -61 29 -111.5t98 -60.5q75 -12 144 38q47 34 85 134q-75 12 -137 61q-134 105 -134 239q0 245 267 245h173v201h-955z" />
<glyph unicode="&#xcd;" horiz-adv-x="1184" d="M-4 892v73h1239v-73h-221v-896h-102v276q-28 -34 -129 -94q-166 -95 -311 -95q-103 0 -184 55q-87 59 -87 156q0 71 73 128q4 2 10 8q-51 14 -85 38q-83 59 -83 140q0 142 198 142h233v142h-551zM221 600q0 -53 51 -93q39 -32 59 -33q79 41 160 41q34 0 121 -8l-12 -81 q-63 4 -134 4q-63 0 -111.5 -36.5t-48.5 -97.5q0 -65 59 -101q49 -30 118 -31q126 0 288 100q132 79 141 103v525h-271v-221h-313q-107 0 -107 -71z" />
<glyph unicode="&#xce;" horiz-adv-x="882" d="M-4 892v73h1002v-73h-290v-257h-343q-130 0 -130 -130q0 -107 87 -172q81 -59 191 -59q16 0 45.5 5t41.5 7q-4 22 20 79q32 75 92 75q91 2 91 -91q0 -53 -53 -96q-36 -28 -57 -32q16 -65 45 -160q12 -47 81 -219h-105l-55 166q-18 -24 -85 -61q-112 -61 -215 -61 q-105 0 -179 55q-83 63 -83 162q0 83 81 136q41 24 84 35q-126 93 -126 231q0 93 49.5 149t142.5 56h282v182h-614zM201 99q0 -61 43.5 -98t106.5 -37q93 0 199 60q85 47 93 65l-31 114l-36 -6q-26 -4 -61 -4q-63 0 -138 20q-20 6 -36 6q-65 0 -98 -28q-42 -37 -42 -92z" />
<glyph unicode="&#xcf;" horiz-adv-x="527" d="M-4 892v73h554v-73h-554zM114 618q0 63 75 63h541v-79h-371v-101q0 -41 -2 -49q-6 -28 -41 -28q-30 0 -116 82t-86 112zM118 266q0 36 36 36h596v-75h-405v-101q0 -45 -27 -45q-16 0 -52 31l-118 99q-30 27 -30 55z" />
<glyph unicode="&#xd0;" horiz-adv-x="971" d="M39 414q47 32 150 101q43 24 107 71v4q-122 73 -122 191q0 73 61 127q51 49 128 49q79 0 140 -47.5t61 -124.5q0 -69 -55 -136q-41 -49 -57 -55q59 -45 171 -126l2 21q0 61 74 118.5t155 57.5q77 0 166 -16l22 -102q-101 39 -176 39t-117.5 -47.5t-42.5 -124.5 q0 -75 48.5 -124t123.5 -49q152 2 290 134v-111q-148 -107 -292 -108q-107 0 -189 71q-57 49 -85 154l-213 169q-28 -20 -138 -98q-81 -55 -158 -105zM268 785q0 -36 37.5 -105.5t69.5 -69.5q18 0 52.5 68t34.5 101q0 47 -26 79t-71 32q-97 0 -97 -105zM677 890v73h329v-73 h-329z" />
<glyph unicode="&#xd1;" horiz-adv-x="1299" d="M-6 965h1332l2 -73h-166v-896h-102v255q-43 -71 -126.5 -123.5t-162.5 -52.5q-180 0 -264 158h24q130 0 130 116q0 77 -67 77h-247q-20 0 -59 -37q-53 -55 -53 -144q0 -107 154 -202q93 -59 207 -92l-36 -89q-109 30 -229 108q-193 126 -193 273q0 128 99 201 q-51 6 -82 52.5t-31 99.5q0 63 54 100q49 32 116 32h294v164h-592zM215 560q2 -26 32.5 -44.5t58.5 -18.5h304q57 0 101.5 -43.5t44.5 -100.5q0 -101 -107 -158q51 -36 128 -37q166 0 283 229v505h-369v-245h-367q-51 0 -71 -8q-44 -16 -38 -79z" />
<glyph unicode="&#xd2;" horiz-adv-x="732" d="M-4 892v73h760v-73h-760zM124 136q0 32 21 56.5t54 24.5q73 0 158 -101q16 -4 47 -4q95 0 168 34q99 45 99 124q0 65 -77 85q-39 10 -130 10h-136q-81 0 -136.5 45.5t-55.5 116.5q0 81 61 124q53 36 136 36h608v-81h-633q-81 0 -81 -79q0 -36 32.5 -62.5t68.5 -26.5 l165 2q128 2 184 -24q85 -41 85 -148q0 -118 -129 -181q-103 -53 -234 -53v-14q87 -49 286 -156l-48 -85q-97 69 -290 203q-150 18 -203 91q-20 27 -20 63z" />
<glyph unicode="&#xd3;" horiz-adv-x="1105" d="M-26 892v73h1241v-73h-290v-146q71 -20 112.5 -83t41.5 -140q0 -67 -110 -213q45 -24 77.5 -80t32.5 -106q0 -140 -136 -302q-6 -10 -79 64q55 53 77 90q43 67 42 144q0 146 -168 146q-91 0 -164 -124q-8 -12 -53 -128l-101 29q4 10 69 133q-73 97 -171 98 q-89 0 -133 -43q-49 -49 -49 -128t42 -129q26 -32 73 -63q26 -18 65 -49l-65 -79q-12 0 -113 91q-95 83 -95 213q0 65 28 136q18 49 81 93q-91 79 -91 195q0 107 74 182.5t181 75.5q71 0 122 -39q32 -24 91 -95q89 124 223 125v132h-855zM231 491q0 -91 65 -140q41 14 97 14 q71 0 128 -41q36 -28 95 -97q101 130 209 130q39 0 71 -10q87 81 87 192q0 36 -30 79q-41 59 -109 59q-83 0 -142 -51.5t-79 -134.5q-10 -41 -13 -47q-8 4 -89 24q10 32 45 112q-73 97 -171 97q-79 0 -121.5 -52.5t-42.5 -133.5zM610 444z" />
<glyph unicode="&#xd4;" horiz-adv-x="1155" d="M-8 892v73h1277v-73h-300v-239q152 -57 152 -249q0 -138 -91 -254q-32 -41 -85 -91l-67 63q47 49 73 81q79 97 79 221q0 63 -46.5 112.5t-107.5 49.5q-114 0 -189 -150q-24 -45 -52 -116q-4 -10 -29 -12q-20 -2 -34 4q-39 18 -39 41q0 6 4 14l37 71l34 63q-24 22 -54 53 q-53 49 -134 48q-79 0 -129 -58.5t-50 -139.5q0 -101 136 -242q39 -36 124 -117l-61 -65q-51 39 -164 148q-132 154 -132 282q0 126 74 200.5t200 74.5q87 0 154 -48q39 -28 87 -75q14 14 77 67q49 41 142 40v223h-886z" />
<glyph unicode="&#xd5;" horiz-adv-x="963" d="M-4 892v73h998v-73h-998zM107 404q0 118 72 207t188 89q156 0 229 -167q12 32 63 85q77 85 158 86q128 0 195 -86q61 -77 61 -208q0 -130 -61 -217q-67 -97 -193 -98q-166 0 -229 181q-55 -193 -229 -193q-116 0 -189 106q-65 93 -65 215zM203 397q0 -89 34 -156 q45 -81 128 -81q142 0 185 244q0 41 -37 111q-53 105 -148 105q-81 0 -126 -75q-36 -61 -36 -148zM641 404q-2 -49 32 -124q51 -114 154 -114q79 0 124 87q36 69 37 159q0 91 -41 146q-47 65 -134 65q-79 0 -132 -102q-42 -78 -40 -117z" />
<glyph unicode="&#xd6;" horiz-adv-x="695" d="M45 432l221 148q16 10 42 28v2q-41 8 -81 74t-40 117q0 79 56.5 128.5t143.5 49.5q83 0 147 -48.5t64 -129.5q0 -73 -57 -134q-36 -43 -60 -51q95 -57 180 -101q73 -39 254 -95l-5 -102q-180 65 -300 124q-77 39 -211 128q-45 -32 -194 -148q-36 -28 -102 -75zM286 801 q0 -41 39.5 -89.5t73.5 -48.5q26 0 61 50.5t35 81.5q0 49 -29.5 82t-76.5 33t-75 -31t-28 -78z" />
<glyph unicode="&#xd7;" horiz-adv-x="983" d="M-187 655l2 81h402q280 0 280 -172q0 -132 -122 -171q-59 -18 -134 -10q57 -172 223 -172q134 0 254 138v543h-728v73h998v-73h-169v-896h-101v239q-109 -103 -264 -103q-170 0 -267 148q-51 79 -63 174q22 -2 125 0q164 4 165 108q0 97 -221 95z" />
<glyph unicode="&#xd8;" horiz-adv-x="413" d="M-4 892v73h444v-73h-444zM61 594q126 -146 296 -146q103 0 199 93l18 21v-116q-91 -101 -195 -101q-91 0 -178 40.5t-136 111.5q-6 50 -4 97z" />
<glyph unicode="&#xd9;" horiz-adv-x="993" d="M-4 892v73h1178v-73h-355v-269h-296q-109 0 -109 -71q0 -79 154 -80h144q126 0 174 -30q63 -41 63 -144q0 -97 -126 -162q-91 -47 -196 -47q-152 0 -307 98q-144 91 -257 227q63 59 71 58q39 -36 100.5 -100t170 -129t226.5 -65q63 0 131 29q87 34 88 87q0 71 -43 87 q-24 10 -103 10h-124q-262 0 -262 163q0 138 191 137h217v201h-730zM566 -18h144v-108h-144v108z" />
<glyph unicode="&#xda;" horiz-adv-x="932" d="M-4 894v71h1010v-71h-256v-278h-351q-75 0 -122.5 -48.5t-47.5 -123.5q0 -185 162 -257q87 -41 179 -41q201 0 203 142q2 109 -118 109q-47 0 -80.5 -28t-33.5 -75q2 -8 13 -69q-12 -4 -47 -10q-36 61 -37 81q0 69 49 120q55 61 140 61q89 0 148 -41q73 -51 71 -142 q-2 -105 -107 -170q-85 -51 -197 -51q-180 0 -308 89q-144 101 -144 278q0 107 72 175t187 68h266v211h-651zM495 0h144v-132h-144v132z" />
<glyph unicode="&#xdb;" horiz-adv-x="841" d="M-12 892v73h1287v-73h-592v-276q67 81 165 82q112 0 184 -59q97 -75 97 -197q0 -95 -57.5 -189.5t-142.5 -145.5q-2 -2 -6 -4l-63 77q2 2 8 5q49 26 93 79q69 85 69 184q0 77 -53 126q-47 41 -123 40q-93 0 -138 -77q-32 -55 -33 -140v-401h-93v284q-89 -77 -193 -77 q-114 0 -190 61q-89 73 -89 192q0 112 81 185t186 73q87 0 152 -45v-81q-89 49 -142 49q-75 0 -127.5 -51t-52.5 -126q0 -77 49.5 -129.5t126.5 -52.5q85 0 152 50q47 34 47 57v507h-602zM148 -32v115h136v-115h-136z" />
<glyph unicode="&#xdc;" horiz-adv-x="906" d="M-4 892v73h935v-73h-428v-217q0 -172 -142 -213q-41 -10 -91 2q79 -114 180 -206q164 -146 312 -146q180 0 361 178q2 -51 0 -91q-174 -166 -344 -167q-105 0 -227 59q-114 55 -203 142q-162 156 -268 402l89 40q28 -81 43 -101q28 -47 83 -47q120 0 120 154v211h-420z M345 -22h134v-118h-134v118zM679 547q0 83 69 140q59 51 150 51q45 0 79 -6l23 -79q-61 16 -98 16q-61 0 -102.5 -34.5t-41.5 -87.5q0 -130 140 -129q93 0 225 105v-95q-138 -83 -208 -83q-103 0 -159 42q-77 61 -77 160z" />
<glyph unicode="&#xdd;" horiz-adv-x="559" d="M-4 892v73h590v-73h-170v-527q0 -34 -4 -45q-6 -20 -37 -20q-39 0 -127 85t-88 132q0 22 41 22h119v353h-324zM264 -2v130h135v-130h-135z" />
<glyph unicode="&#xde;" horiz-adv-x="794" d="M0 896v65h817v-65h-817zM116 661h89q6 -75 65 -205q51 -109 99 -154q65 -55 172 -53q146 4 146 167q0 63 -46.5 128.5t-107.5 69.5v53h479v-65h-383q51 -16 93 -79t42 -117q0 -221 -255 -221q-199 0 -310 223q-67 131 -83 253zM460 12h134v-126h-134v126z" />
<glyph unicode="&#xdf;" horiz-adv-x="760" d="M-4 892v73h1231v-73h-602v-304q4 6 24 26q65 75 168 75q112 0 171 -66q73 -79 72 -236v-302h-99v288q0 235 -148 235q-85 0 -136.5 -52.5t-51.5 -135.5v-424h-94v367q-77 -85 -164 -85q-107 0 -171 66t-64 173v375h-136zM189 26v132h133v-132h-133zM229 501 q0 -152 134 -152q69 0 126 50q49 47 48 94v399h-308v-391z" />
<glyph unicode="&#xe0;" d="M-754 -268l344 343h112l300 -343h-124l-233 294l-249 -294h-150z" />
<glyph unicode="&#xe1;" d="M-286 -276l65 65q89 -81 314 -312l-46 -41z" />
<glyph unicode="&#xe2;" d="M-375 1133v153h158v-153h-158z" />
<glyph unicode="&#xe3;" d="M-454 1249q0 180 227 176h152v-77h-71q-57 0 -81 -4q-132 -8 -132 -129q0 -130 138 -264h-87q-24 24 -81 99q-65 102 -65 199z" />
<glyph unicode="&#xe4;" d="M-791 -310l69 85q185 -209 446 -209q85 0 148 51.5t63 135.5q0 69 -44.5 107.5t-103.5 38.5q-77 0 -142 -88l-61 73q87 93 203 94q112 0 176.5 -66t64.5 -170q0 -114 -85 -184q-95 -77 -241 -77q-254 0 -493 209z" />
<glyph unicode="&#xe5;" d="M-493 -221q0 39 10 75q51 170 246 170q32 0 67 -6q132 -24 294 -233l174 -225l-91 -51l-164 225q-77 107 -116 140q-75 65 -164 65q-132 0 -160 -113q-6 -24 -7 -43q0 -89 98 -132q36 -16 73 -16q45 0 83 20l18 -81q0 -10 -48 -20q-39 -6 -63 -6q-124 0 -203 95 q-47 59 -47 136z" />
<glyph unicode="&#xe6;" d="M-491 -178q6 99 69 152.5t173 53.5h115v-79h-113q-146 0 -152 -131q-4 -75 48 -118q47 -39 124 -39q87 0 217 53v-85q-105 -39 -179 -45q-134 -10 -217 47q-93 65 -85 191z" />
<glyph unicode="&#xe7;" d="M-750 1314v114q101 2 211 -63q164 -99 336 -457h-73q-136 262 -300 361q-67 41 -174 45z" />
<glyph unicode="&#xe8;" d="M-829 1144v87h28q65 0 120 -25q118 -53 286 -255l-67 -2q-182 195 -327 195h-40zM-667 1342l8 98q93 -8 185 -73q140 -101 271 -440l-67 4q-105 258 -243 355q-65 46 -154 56z" />
<glyph unicode="&#xe9;" d="M-629 1377h108q0 -22 2 -29q4 -43 24 -73q61 -89 177 -89t176 89q24 32 26 73q2 6 2 29h108q0 -26 -4 -37q-6 -45 -51 -105q-85 -114 -255 -114q-172 0 -258 114q-45 61 -51 105q-4 11 -4 37z" />
<glyph unicode="&#xea;" d="M-750 1306v122q101 2 211 -63q164 -99 336 -457h-73q-130 249 -300 353q-67 41 -174 45zM-251 1249v144h150v-144h-150z" />
<glyph unicode="&#xeb;" d="M-744 1314v114q217 4 385 -252l-4 47q0 180 207 180h122v-79h-120q-134 0 -134 -152q0 -112 95 -264h-91q-140 274 -286 361q-67 41 -174 45z" />
<glyph unicode="&#xec;" d="M-833 1136v95h28q65 0 120 -25q118 -53 286 -255l-75 -2q-174 187 -319 187h-40zM-671 1338l8 102q93 -8 184 -73q140 -101 272 -440l-67 4q-103 251 -243 351q-65 46 -154 56zM-266 1249v144h150v-144h-150z" />
<glyph unicode="&#xed;" d="M-833 1136v95h28q65 0 120 -25q118 -53 286 -255l-75 -2q-174 187 -319 187h-40zM-740 1322v106q217 4 395 -272q-6 79 -6 67q0 91 54 145.5t145 54.5h122v-79h-120q-134 0 -134 -172q0 -99 104 -264h-84q-140 272 -302 369q-67 41 -174 45z" />
<glyph unicode="&#xee;" d="M-637 1377h108q0 -22 2 -29q4 -43 24 -73q61 -89 177 -89t176 89q24 32 26 73q2 6 2 29h108q0 -26 -4 -37q-6 -45 -51 -105q-91 -122 -255 -122q-166 0 -258 122q-45 61 -51 105q-4 11 -4 37zM-387 1324v118h129v-118h-129z" />
<glyph unicode="&#xef;" horiz-adv-x="654" d="M434 0v1091h103v-1091h-103z" />
<glyph unicode="&#xf0;" horiz-adv-x="405" />
<glyph unicode="&#xf1;" horiz-adv-x="476" />
<glyph unicode="&#xf2;" horiz-adv-x="385" />
<glyph unicode="&#xf3;" horiz-adv-x="121" />
<glyph unicode="&#xf4;" horiz-adv-x="81" />
<glyph unicode="&#xf5;" horiz-adv-x="40" />
<glyph unicode="&#xf6;" horiz-adv-x="89" />
<glyph unicode="&#xf7;" horiz-adv-x="56" />
<glyph unicode="&#xf8;" horiz-adv-x="32" />
<glyph unicode="&#xf9;" horiz-adv-x="60" />
<glyph unicode="&#xfa;" horiz-adv-x="40" />
<glyph unicode="&#xfb;" horiz-adv-x="324" />
<glyph unicode="&#xfc;" horiz-adv-x="527" />
<glyph unicode="&#xfd;" horiz-adv-x="81" />
<glyph unicode="&#xfe;" horiz-adv-x="28" />
<glyph unicode="&#xff;" horiz-adv-x="405" d="M144 1708v95h28q65 0 120 -25q118 -53 286 -255l-80 -2q-174 187 -314 187h-40zM237 1894v106q217 4 395 -272q-6 79 -6 67q0 91 54 145.5t145 54.5h122v-79h-112q-134 0 -134 -172q0 -122 79 -247h-79q-18 30 -85 138q-101 152 -205 214q-67 41 -174 45zM833 1683v112 h124v-112h-124zM-387 1138q0 227 227 227q243 0 365 -298q14 -39 34 -104h197v-73h-197v-894h-95v894h-189v73h187q0 20 -26 83q-97 241 -274 242q-128 0 -128 -150q0 -93 59 -183h-104q-56 92 -56 183zM211 1249v126h130v-126h-130z" />
<glyph unicode="&#x152;" horiz-adv-x="685" d="M114 783v34q2 182 202 183q69 0 126 -55t57 -122v-257h383v-81h-383v-146q-2 -4 0 -6q0 -45 -41 -45q-34 0 -133.5 100.5t-99.5 134.5q0 43 51 43h123v263q0 95 -103 96q-41 0 -67 -31.5t-26 -74.5q0 -28 4 -36h-93zM282 75l606 292v-73l-555 -300q-19 20 -51 81z" />
<glyph unicode="&#x153;" horiz-adv-x="588" d="M-4 892v73h618v-73h-265v-310h413v-81h-413v-132q2 -18 0 -24q-6 -22 -41 -23q-28 0 -121.5 91.5t-93.5 119.5q0 49 55 49h95v310h-247zM150 75l614 292v-73l-549 -294z" />
<glyph unicode="&#x178;" horiz-adv-x="1013" d="M-12 892v73h1535v-73h-692v-440l286 152q-14 24 -14 53q0 43 26.5 75t66.5 32q103 0 106 -107q0 -32 -28.5 -61.5t-60.5 -33.5l115 -205q-65 0 -122 -24q-81 -36 -91 -112q-8 -59 31.5 -108.5t104.5 -49.5q99 0 142 83l97 -45q-87 -114 -233 -113q-97 0 -170 71 q-67 61 -67 162q0 81 56.5 135t138.5 56l-67 133l-317 -164v-381h-91v335l-478 -286l-41 75l193 103q93 109 93 213q0 71 -44.5 107.5t-105.5 36.5q-73 0 -120 -41q-30 -28 -79 -113l-59 77q34 71 105.5 115.5t154.5 46.5q77 2 141 -40.5t78 -115.5q6 -26 6 -59 q0 -77 -65 -172l217 115v495h-748z" />
<glyph unicode="&#x2c6;" horiz-adv-x="981" d="M55 418l57 4q30 -146 137 -227l-36 -45q-138 114 -158 268zM57 543q24 166 158 268l36 -45q-116 -87 -139 -229zM324 872q85 30 167 30q79 0 160 -28l-22 -53q-67 26 -140 27q-75 0 -140 -29zM326 87l23 51q67 -26 142 -26q73 0 138 26l22 -53q-77 -28 -156 -28 q-84 0 -169 30zM726 191q120 97 140 231l55 -4q-20 -158 -159 -272zM726 766l36 45q138 -103 163 -268l-59 -6q-22 140 -140 229z" />
<glyph unicode="&#x2dc;" d="M-813 1336q0 36 10 67h75q-2 -20 -2 -40q0 -132 101 -152q63 -12 124 -23q69 -14 120 -40q-49 61 -49 109q0 87 59 137t146 50h115v-77h-26h-89q-51 -6 -79 -33q-39 -41 -39 -105q0 -36 59 -124q63 -93 71 -154h-77q-6 34 -18 57q-30 59 -98 81q-39 14 -137 26 q-89 12 -144 37q-122 56 -122 184zM-191 1148v101h118v-101h-118z" />
<glyph unicode="&#x2000;" horiz-adv-x="999" />
<glyph unicode="&#x2001;" horiz-adv-x="1999" />
<glyph unicode="&#x2002;" horiz-adv-x="999" />
<glyph unicode="&#x2003;" horiz-adv-x="1999" />
<glyph unicode="&#x2004;" horiz-adv-x="665" />
<glyph unicode="&#x2005;" horiz-adv-x="498" />
<glyph unicode="&#x2006;" horiz-adv-x="332" />
<glyph unicode="&#x2007;" horiz-adv-x="332" />
<glyph unicode="&#x2008;" horiz-adv-x="249" />
<glyph unicode="&#x2009;" horiz-adv-x="399" />
<glyph unicode="&#x200a;" horiz-adv-x="109" />
<glyph unicode="&#x2010;" horiz-adv-x="922" d="M193 440v79h596v-79h-596z" />
<glyph unicode="&#x2011;" horiz-adv-x="922" d="M193 440v79h596v-79h-596z" />
<glyph unicode="&#x2012;" horiz-adv-x="922" d="M193 440v79h596v-79h-596z" />
<glyph unicode="&#x2013;" d="M-803 1342q0 34 6 61h69q-8 -170 103 -190q83 -12 165 -25q91 -18 157 -60.5t88 -176.5h-79q-6 20 -18 57q-30 59 -100 83q-41 14 -131 22q-73 6 -146 41q-114 52 -114 188zM-264 1267v136h146v-136h-146z" />
<glyph unicode="&#x2014;" d="M-809 1348q0 36 8 63h79q-6 -51 2 -95q18 -89 100 -105q63 -12 126.5 -24.5t114.5 -38.5q-49 61 -49 111q0 164 205 164q116 0 146 2v-77q-10 10 -53 7q-63 -6 -83 -7q-126 0 -126 -119q0 -41 64 -132t64 -146h-73q-28 107 -120 138q-39 14 -135 26q-85 10 -146 39 q-124 58 -124 194z" />
<glyph unicode="&#x2018;" d="M-742 -452l59 48q71 -57 213 -97q132 -36 235 -36q195 0 194 81q0 87 -125 87q-71 0 -128 -53l-55 51q95 73 179 73q85 0 142 -39q65 -45 64 -127q0 -75 -95 -112q-71 -26 -160 -26q-122 0 -270 38q-168 43 -253 112zM-627 -237l335 288l335 -292l-77 -51l-258 274 l-247 -276z" />
<glyph unicode="&#x2019;" d="M-716 -209l317 274l109 -2l302 -262l-65 -69l-296 292l-294 -302zM-547 -432q24 160 235 152q162 -6 302 -174q8 -12 115 -110l-64 -46l-102 109q-128 134 -255 146q-130 12 -154 -93q-8 -34 18 -62.5t61 -32.5q61 -8 136 34l24 -55q-36 -49 -146 -48q-81 0 -131.5 50.5 t-38.5 129.5z" />
<glyph unicode="&#x201a;" horiz-adv-x="1074" d="M-4 892v73h1243v-73l-404 -2v-270h-292q-124 0 -123 -95q0 -85 127 -85h173q223 0 221 -191q0 -120 -93 -184q-77 -53 -211 -53q-152 0 -313 116q-89 65 -241 229q67 77 73 73q114 -154 248 -256q118 -89 241 -89q91 0 151 40.5t60 119.5q0 69 -41 94q-30 20 -103 20 h-169q-205 0 -204 168q0 162 190 162h213v201zM990 483v127h133v-127h-133z" />
<glyph unicode="&#x201c;" d="M-860 -326l47 77q296 -225 509 -225q83 0 154 32q91 41 91 109q0 51 -63 78q-47 18 -105 18q-79 0 -152 -77l-71 61q136 89 235 89q237 0 237 -164q0 -116 -113 -171q-85 -41 -215 -40q-256 0 -554 213zM-495 10h154v-130h-154v130z" />
<glyph unicode="&#x201d;" d="M-560 -432q0 95 83 136q67 30 169 22q164 -14 338 -184l84 -79l-49 -49l-79 83q-132 134 -306 158q-14 2 -41 2q-120 0 -120 -99q0 -59 80 -75q59 -12 133 20l47 -42q-61 -55 -138 -55q-73 0 -134 42q-67 49 -67 120zM-466 -24h144v-120h-144v120z" />
<glyph unicode="&#x201e;" horiz-adv-x="859" d="M-4 892v73h894v-73h-197v-310q91 122 195 122h110v-75q2 -6 -2 -7.5t-25 -1.5h-87q-77 0 -134 -66.5t-57 -145.5v-408h-95v280q-97 -81 -197 -81q-105 0 -196 73q-79 61 -79 178q0 118 79 188t190 70q34 0 150 -45v-81q-103 49 -139 49q-77 0 -130 -51t-53 -126 q0 -77 47.5 -126.5t124.5 -49.5q47 0 120 30q83 36 83 77v507h-602zM174 45h134v-128h-134v128z" />
<glyph unicode="&#x2022;" d="M-803 1342q0 34 6 61h69q-8 -170 103 -190q83 -12 165 -25q91 -18 157 -60.5t88 -176.5h-79q-6 20 -18 57q-30 59 -100 83q-41 14 -131 22q-73 6 -146 41q-114 52 -114 188z" />
<glyph unicode="&#x2026;" horiz-adv-x="354" d="M-8 892v73h381v-73h-381zM93 187v127h140v-127h-140zM93 556v133h140v-133h-140z" />
<glyph unicode="&#x202f;" horiz-adv-x="399" />
<glyph unicode="&#x2039;" horiz-adv-x="1013" d="M-18 892v73h1553v-73h-712v-440l304 152q-18 28 -18 59q0 43 35.5 72t78.5 29q91 0 91 -113q0 -26 -30.5 -53.5t-58.5 -33.5l105 -197q-209 -6 -209 -103q0 -95 154 -96q28 0 55 12q12 2 51 23l30 -71q-8 -2 -54 -14q-118 -30 -118 -124q0 -97 128 -97q103 0 196 93 l63 -69q-142 -93 -257 -93q-99 0 -161 44.5t-62 107.5q0 75 71 119q6 2 32 15q-36 0 -51 2q-166 18 -166 137q0 75 69 120q59 41 136 43l-81 129l-333 -166v-377h-91v333l-477 -296l-44 91l195 97q87 105 87 209q0 65 -41.5 104.5t-106.5 39.5q-120 0 -193 -154l-51 85 q10 12 29 43q39 57 105.5 86t127.5 25q120 -6 178 -111q28 -53 29 -110q0 -79 -57 -162l221 132l-2 478h-750z" />
<glyph unicode="&#x203a;" d="M-815 1348h89q-4 -43 10 -81q28 -83 140 -83q122 0 148 83q10 34 6 81h61q53 97 193 98h109v-83h-97q-65 2 -107.5 -41t-42.5 -107q0 -140 103 -264h-77q-14 12 -51 75q-45 81 -56 152q-77 -65 -189 -65q-255 0 -239 235zM-189 1121v112h128v-112h-128z" />
<glyph unicode="&#x205f;" horiz-adv-x="498" />
<glyph unicode="&#x2122;" d="M-700 1381h84q-8 -85 26 -138q39 -61 122 -61q79 0 111 65q28 53 20 134h92q6 -116 -51 -189t-174 -73q-120 0 -179 75q-57 69 -51 187zM-185 1162v117h136v-117h-136z" />
<glyph unicode="&#xe000;" horiz-adv-x="1430" d="M0 1430h1430v-1430h-1430v1430z" />
<glyph unicode="&#xfb01;" horiz-adv-x="1204" d="M746 892v73h485v-73h-485zM872 474q0 91 81 173q67 69 211 69q63 0 131 -29l23 -79q-67 30 -144 31q-193 0 -193 -169q0 -77 50 -129.5t127 -54.5h4q151 0 267 136v-112q-24 -24 -87 -55q-89 -43 -168 -42q-136 0 -213 65q-89 74 -89 196zM-4 892v73h835v-73h-269v-176 q0 -272 -195 -272q-36 0 -69 8l146 -150l249 -272q-20 -22 -75 -58q-146 148 -533 594l77 67l65 -71q43 -45 97 -45q134 0 134 201v174h-462z" />
<glyph unicode="&#xfb02;" horiz-adv-x="1520" d="M746 892v73h829v-73h-280v-176q0 -132 -75 -203h471v-65h-649l357 -422l-71 -58l-499 596l63 63l65 -71q41 -41 111 -41q136 0 136 203v174h-458zM-4 892v73h835v-73h-269v-176q0 -272 -195 -272q-36 0 -69 8l146 -150l249 -272q-20 -22 -75 -58q-146 148 -533 594l77 67 l65 -71q43 -45 97 -45q134 0 134 201v174h-462z" />
<glyph unicode="&#xfb03;" horiz-adv-x="1954" d="M1497 892v73h485v-73h-485zM1623 474q0 91 81 173q67 69 211 69q63 0 131 -29l23 -79q-67 30 -144 31q-193 0 -193 -169q0 -77 50 -129.5t127 -54.5h4q151 0 267 136v-112q-24 -24 -87 -55q-89 -43 -168 -42q-136 0 -213 65q-89 74 -89 196zM746 892v73h835v-73h-269 v-176q0 -272 -195 -272q-36 0 -69 8l146 -150l249 -272q-20 -22 -75 -58q-146 148 -533 594l77 67l65 -71q43 -45 97 -45q134 0 134 201v174h-462zM-4 892v73h835v-73h-269v-176q0 -272 -195 -272q-36 0 -69 8l146 -150l249 -272q-20 -22 -75 -58q-146 148 -533 594l77 67 l65 -71q43 -45 97 -45q134 0 134 201v174h-462z" />
<glyph unicode="&#xfb04;" horiz-adv-x="2271" d="M1497 892v73h829v-73h-280v-176q0 -132 -75 -203h471v-65h-649l357 -422l-71 -58l-499 596l63 63l65 -71q41 -41 111 -41q136 0 136 203v174h-458zM746 892v73h835v-73h-269v-176q0 -272 -195 -272q-36 0 -69 8l146 -150l249 -272q-20 -22 -75 -58q-146 148 -533 594 l77 67l65 -71q43 -45 97 -45q134 0 134 201v174h-462zM-4 892v73h835v-73h-269v-176q0 -272 -195 -272q-36 0 -69 8l146 -150l249 -272q-20 -22 -75 -58q-146 148 -533 594l77 67l65 -71q43 -45 97 -45q134 0 134 201v174h-462z" />
</font>
</defs>
</svg>
